<svg xmlns="http://www.w3.org/2000/svg" width="20" height="21" viewBox="0 0 20 21">
  <g id="グループ_66" data-name="グループ 66" transform="translate(-103 -1702)">
    <g id="長方形_62" data-name="長方形 62" transform="translate(103 1705)" fill="#7c7973" stroke="#fff" stroke-width="2">
      <rect width="20" height="18" rx="3" stroke="none"/>
      <rect x="1" y="1" width="18" height="16" rx="2" fill="none"/>
    </g>
    <g id="長方形_63" data-name="長方形 63" transform="translate(103 1706)" fill="#7c7973" stroke="#fff" stroke-width="2">
      <path d="M3,0H17a3,3,0,0,1,3,3V4a0,0,0,0,1,0,0H0A0,0,0,0,1,0,4V3A3,3,0,0,1,3,0Z" stroke="none"/>
      <path d="M3,1H17a2,2,0,0,1,2,2V3a0,0,0,0,1,0,0H1A0,0,0,0,1,1,3V3A2,2,0,0,1,3,1Z" fill="none"/>
    </g>
    <g id="長方形_64" data-name="長方形 64" transform="translate(107 1702)" fill="#7c7973" stroke="#fff" stroke-width="2">
      <rect width="2" height="6" rx="1" stroke="none"/>
      <rect x="1" y="1" height="4" fill="none"/>
    </g>
    <g id="長方形_65" data-name="長方形 65" transform="translate(117 1702)" fill="#7c7973" stroke="#fff" stroke-width="2">
      <rect width="2" height="6" rx="1" stroke="none"/>
      <rect x="1" y="1" height="4" fill="none"/>
    </g>
  </g>
</svg>
