<svg xmlns="http://www.w3.org/2000/svg" width="336.748" height="65.296" viewBox="0 0 336.748 65.296">
  <g id="ttl_instagram" transform="translate(168.374 32.648)">
    <g id="グループ_3345" data-name="グループ 3345" transform="translate(-168 -32.274)">
      <g id="グループ_3343" data-name="グループ 3343" transform="translate(2.992 2.992)">
        <path id="パス_10941" data-name="パス 10941" d="M2.25,48.334H11.6L19.5,2.25H10.085Z" transform="translate(-2.25 -2.25)" fill="#fff" stroke="#333" stroke-linecap="round" stroke-linejoin="round" stroke-width="0.748"/>
        <path id="パス_10942" data-name="パス 10942" d="M46.337,13.885a8.774,8.774,0,0,0-5.66-1.514,10.706,10.706,0,0,0-5.4,1.317c-1.537.878-2.388.337-3.443,1.917l.217-2.575H23.624l-5.2,30.284h8.427l3.226-18.631a7.344,7.344,0,0,1,1.185-3.127,6.372,6.372,0,0,1,2.4-2.107,6.924,6.924,0,0,1,3.193-.757,3.609,3.609,0,0,1,2.7.889,4.175,4.175,0,0,1,1.085,2.271,10.66,10.66,0,0,1,.034,3.028L37.451,43.313h8.623l3.358-19.355a14.019,14.019,0,0,0-.3-5.892A7.948,7.948,0,0,0,46.337,13.885Z" transform="translate(5.777 2.771)" fill="#fff" stroke="#333" stroke-linecap="round" stroke-linejoin="round" stroke-width="0.748"/>
        <path id="パス_10943" data-name="パス 10943" d="M58.155,19.118a4.375,4.375,0,0,1,2.566-.691A7.83,7.83,0,0,1,64.8,19.612a14.82,14.82,0,0,1,3.489,2.9l4.017-5.2a19.4,19.4,0,0,0-5.1-3.522,15.184,15.184,0,0,0-6.681-1.415,14.656,14.656,0,0,0-5.268.955,9.9,9.9,0,0,0-4.115,2.864,8.167,8.167,0,0,0-1.81,4.872,7.464,7.464,0,0,0,.922,4.279,8.606,8.606,0,0,0,2.8,2.9,19.461,19.461,0,0,0,3.654,1.843q1.58.593,2.864,1.219a7.638,7.638,0,0,1,2.075,1.414,2.565,2.565,0,0,1,.723,2.041,2.741,2.741,0,0,1-1.086,2.205,4.073,4.073,0,0,1-2.666.889,7.209,7.209,0,0,1-3.094-.56,12.852,12.852,0,0,1-2.963-1.745A31.342,31.342,0,0,1,49.6,32.91l-4.674,5.2a26.36,26.36,0,0,0,3.754,3.094,18.032,18.032,0,0,0,10.4,3.16A13.308,13.308,0,0,0,64.9,43.148a9.91,9.91,0,0,0,5.761-8.591,7.428,7.428,0,0,0-.922-4.345,8.933,8.933,0,0,0-2.864-2.864,26.063,26.063,0,0,0-4.047-2.074Q61.377,24.681,60,24.089a7.218,7.218,0,0,1-2.173-1.35,2.2,2.2,0,0,1-.723-1.81A2.286,2.286,0,0,1,58.155,19.118Z" transform="translate(18.925 2.772)" fill="#fff" stroke="#333" stroke-linecap="round" stroke-linejoin="round" stroke-width="0.748"/>
        <path id="パス_10944" data-name="パス 10944" d="M85.179,5.771H76.95L75.166,16.3H70.234L68.918,23.48h5.033L70.037,46.587h8.032L82.095,23.48h5.126L88.471,16.3H83.345Z" transform="translate(30.834 -0.503)" fill="#fff" stroke="#333" stroke-linecap="round" stroke-linejoin="round" stroke-width="0.748"/>
        <path id="パス_10945" data-name="パス 10945" d="M111.65,18.782a12.9,12.9,0,0,0-.736-1.573,9.762,9.762,0,0,0-3.358-3.522,9.646,9.646,0,0,0-5.2-1.317,14.434,14.434,0,0,0-7.67,2.041A18.534,18.534,0,0,0,85.7,28.171a16.108,16.108,0,0,0,.724,7.867,12.281,12.281,0,0,0,4.148,5.728,11.229,11.229,0,0,0,6.979,2.14,12.888,12.888,0,0,0,5.6-1.218,14.13,14.13,0,0,0,4.51-3.39c.226-.253.437-.522.651-.79l-.815,4.806h8.229l5.2-30.284h-8.3Zm-5.116,15.545a9.606,9.606,0,0,1-2.8,1.876,7.675,7.675,0,0,1-3.094.658,6.032,6.032,0,0,1-5.958-4.444,9.436,9.436,0,0,1-.3-4.246,10.523,10.523,0,0,1,1.81-4.444,10.737,10.737,0,0,1,3.489-3.193,8.207,8.207,0,0,1,4.378-1.119,5.657,5.657,0,0,1,2.765.79,6.192,6.192,0,0,1,1.975,1.942,7.686,7.686,0,0,1,1.086,2.732,9.784,9.784,0,0,1,.033,3.292,10.836,10.836,0,0,1-1.218,3.358A11.762,11.762,0,0,1,106.534,34.327Z" transform="translate(39.07 2.771)" fill="#fff" stroke="#333" stroke-linecap="round" stroke-linejoin="round" stroke-width="0.748"/>
        <path id="パス_10946" data-name="パス 10946" d="M141.89,18.372a12.846,12.846,0,0,0-.654-1.327,9.246,9.246,0,0,0-3.39-3.423,10.081,10.081,0,0,0-5.168-1.251,14.777,14.777,0,0,0-7.637,1.942,17.7,17.7,0,0,0-5.958,5.53,18.22,18.22,0,0,0-3,8,16,16,0,0,0,.724,7.867,11.841,11.841,0,0,0,4.181,5.6,11.522,11.522,0,0,0,6.946,2.074,13.2,13.2,0,0,0,5.6-1.185,13.928,13.928,0,0,0,4.508-3.325c.138-.151.247-.334.379-.491l-.741,4.276a11.71,11.71,0,0,1-1.776,4.74,9.616,9.616,0,0,1-3.425,3.226A9.156,9.156,0,0,1,128,51.74a7.147,7.147,0,0,1-3.522-.79,4.791,4.791,0,0,1-2.074-2.205,7.8,7.8,0,0,1-.657-3.325h-8.1a14,14,0,0,0,1.448,7.044,10.775,10.775,0,0,0,4.806,4.674,17.427,17.427,0,0,0,7.966,1.646,18.412,18.412,0,0,0,8.526-1.942,16.991,16.991,0,0,0,6.287-5.563,19.968,19.968,0,0,0,3.226-8.624l5.069-29.626h-8.163ZM139.129,31.2a9.746,9.746,0,0,1-2.173,2.732,10.193,10.193,0,0,1-2.831,1.778,7.21,7.21,0,0,1-3.094.56,6.283,6.283,0,0,1-3.786-1.119,5.893,5.893,0,0,1-2.173-3.028,9.2,9.2,0,0,1-.3-4.213,10.278,10.278,0,0,1,1.778-4.378A9.818,9.818,0,0,1,129.98,20.5a9.233,9.233,0,0,1,4.409-1.086,6.143,6.143,0,0,1,2.765.726,5.748,5.748,0,0,1,1.975,1.809,7.477,7.477,0,0,1,1.119,2.666,8.668,8.668,0,0,1,.109,2.594l-.232,1.335A11.361,11.361,0,0,1,139.129,31.2Z" transform="translate(53.028 2.771)" fill="#fff" stroke="#333" stroke-linecap="round" stroke-linejoin="round" stroke-width="0.748"/>
        <path id="パス_10947" data-name="パス 10947" d="M164.659,12.326a7.893,7.893,0,0,0-4.971,1.843,15.628,15.628,0,0,0-2.671,2.74l.663-3.859h-8.3l-5.2,30.284h8.3l2.759-16.071.006.007a10.54,10.54,0,0,1,1.086-3.423,7.785,7.785,0,0,1,2.138-2.6,4.519,4.519,0,0,1,3.03-.955,3.921,3.921,0,0,1,1.942.461,10.9,10.9,0,0,1,1.613,1.119l4.806-7.044a7.3,7.3,0,0,0-2.271-1.843A6.356,6.356,0,0,0,164.659,12.326Z" transform="translate(68.184 2.75)" fill="#fff" stroke="#333" stroke-linecap="round" stroke-linejoin="round" stroke-width="0.748"/>
        <path id="パス_10948" data-name="パス 10948" d="M190.356,18.782a12.683,12.683,0,0,0-.736-1.573,9.761,9.761,0,0,0-3.358-3.522,9.647,9.647,0,0,0-5.2-1.317,14.434,14.434,0,0,0-7.67,2.041A18.534,18.534,0,0,0,164.4,28.171a16.108,16.108,0,0,0,.724,7.867,12.281,12.281,0,0,0,4.148,5.728,11.229,11.229,0,0,0,6.979,2.14,12.888,12.888,0,0,0,5.6-1.218,14.13,14.13,0,0,0,4.51-3.39c.226-.253.437-.522.651-.79l-.815,4.806h8.229l5.2-30.284h-8.3Zm-5.114,15.545a9.631,9.631,0,0,1-2.8,1.876,7.675,7.675,0,0,1-3.094.658,6.032,6.032,0,0,1-5.958-4.444,9.437,9.437,0,0,1-.3-4.246,10.523,10.523,0,0,1,1.81-4.444,10.752,10.752,0,0,1,3.489-3.193,8.207,8.207,0,0,1,4.378-1.119,5.656,5.656,0,0,1,2.765.79,6.177,6.177,0,0,1,1.975,1.942,7.687,7.687,0,0,1,1.086,2.732,9.745,9.745,0,0,1,.033,3.292,10.835,10.835,0,0,1-1.218,3.358A11.794,11.794,0,0,1,185.242,34.327Z" transform="translate(78.128 2.771)" fill="#fff" stroke="#333" stroke-linecap="round" stroke-linejoin="round" stroke-width="0.748"/>
        <path id="パス_10949" data-name="パス 10949" d="M240.112,18.1a7.382,7.382,0,0,0-2.3-4.213,7.373,7.373,0,0,0-5.2-1.514,11.4,11.4,0,0,0-5.76,1.448c-1.691.965-1.772-.148-3,1.52-.263-1.14-2.08.313-2.7-.5a5.943,5.943,0,0,0-2.467-1.878,9.222,9.222,0,0,0-3.851-.593,10.144,10.144,0,0,0-3.524.593,9.994,9.994,0,0,0-2.93,1.679c-.878.724-.666-.9-1.324.064l-.32-1.677h-8.164l-5.2,30.284h8.163l3.224-18.763a8.8,8.8,0,0,1,1.154-3.028,5.765,5.765,0,0,1,2.14-2.041,6.054,6.054,0,0,1,2.963-.724,2.756,2.756,0,0,1,2.271.856,4.315,4.315,0,0,1,.856,2.238,12.9,12.9,0,0,1-.034,3.028l-3.292,18.434h8.363l3.159-18.565a8.811,8.811,0,0,1,1.154-3.094,6.233,6.233,0,0,1,2.173-2.107,5.82,5.82,0,0,1,3-.79,2.844,2.844,0,0,1,2.337.856,4.14,4.14,0,0,1,.821,2.273,16.945,16.945,0,0,1,0,2.994l-3.356,18.434h8.493l3.292-19.355A18.432,18.432,0,0,0,240.112,18.1Z" transform="translate(92.593 2.77)" fill="#fff" stroke="#333" stroke-linecap="round" stroke-linejoin="round" stroke-width="0.748"/>
      </g>
      <g id="グループ_3344" data-name="グループ 3344">
        <path id="パス_10950" data-name="パス 10950" d="M.25,46.334H9.6L17.5.25H8.085Z" transform="translate(-0.25 -0.25)" fill="#7ed0a9" stroke="#333" stroke-linejoin="round" stroke-width="0.748"/>
        <path id="パス_10951" data-name="パス 10951" d="M44.337,11.885a8.774,8.774,0,0,0-5.66-1.514,10.706,10.706,0,0,0-5.4,1.317,11.508,11.508,0,0,0-3.883,3.687l.657-4.345H21.624l-5.2,30.284h8.427l3.226-18.631a7.344,7.344,0,0,1,1.185-3.127,6.372,6.372,0,0,1,2.4-2.107,6.924,6.924,0,0,1,3.193-.757,3.609,3.609,0,0,1,2.7.889,4.175,4.175,0,0,1,1.085,2.271,10.66,10.66,0,0,1,.034,3.028L35.451,41.313h8.623l3.358-19.355a14.02,14.02,0,0,0-.3-5.892A7.948,7.948,0,0,0,44.337,11.885Z" transform="translate(7.777 4.771)" fill="#7ed0a9" stroke="#333" stroke-linejoin="round" stroke-width="0.748"/>
        <path id="パス_10952" data-name="パス 10952" d="M56.155,17.118a4.375,4.375,0,0,1,2.566-.691A7.83,7.83,0,0,1,62.8,17.612a14.82,14.82,0,0,1,3.489,2.9l4.017-5.2a19.4,19.4,0,0,0-5.1-3.522,15.184,15.184,0,0,0-6.681-1.415,14.656,14.656,0,0,0-5.268.955,9.9,9.9,0,0,0-4.115,2.864,8.167,8.167,0,0,0-1.81,4.872,7.464,7.464,0,0,0,.922,4.279,8.606,8.606,0,0,0,2.8,2.9,19.461,19.461,0,0,0,3.654,1.843q1.58.593,2.864,1.219a7.639,7.639,0,0,1,2.075,1.414,2.565,2.565,0,0,1,.723,2.041,2.741,2.741,0,0,1-1.086,2.205,4.073,4.073,0,0,1-2.666.889,7.209,7.209,0,0,1-3.094-.56,12.852,12.852,0,0,1-2.963-1.745A31.342,31.342,0,0,1,47.6,30.91l-4.674,5.2a26.36,26.36,0,0,0,3.754,3.094,18.032,18.032,0,0,0,10.4,3.16A13.308,13.308,0,0,0,62.9,41.148a9.91,9.91,0,0,0,5.761-8.591,7.428,7.428,0,0,0-.922-4.345,8.933,8.933,0,0,0-2.864-2.864,26.063,26.063,0,0,0-4.047-2.074Q59.377,22.681,58,22.089a7.218,7.218,0,0,1-2.173-1.35,2.2,2.2,0,0,1-.723-1.81A2.286,2.286,0,0,1,56.155,17.118Z" transform="translate(20.925 4.772)" fill="#7ed0a9" stroke="#333" stroke-linejoin="round" stroke-width="0.748"/>
        <path id="パス_10953" data-name="パス 10953" d="M83.179,3.771H74.95L73.166,14.3H68.234L66.918,21.48h5.033L68.037,44.587h8.032L80.095,21.48h5.126L86.471,14.3H81.345Z" transform="translate(32.834 1.497)" fill="#7ed0a9" stroke="#333" stroke-linejoin="round" stroke-width="0.748"/>
        <path id="パス_10954" data-name="パス 10954" d="M109.65,16.782a12.907,12.907,0,0,0-.736-1.573,9.762,9.762,0,0,0-3.358-3.522,9.646,9.646,0,0,0-5.2-1.317,14.434,14.434,0,0,0-7.67,2.041A18.534,18.534,0,0,0,83.7,26.171a16.108,16.108,0,0,0,.724,7.867,12.281,12.281,0,0,0,4.148,5.728,11.23,11.23,0,0,0,6.979,2.14,12.888,12.888,0,0,0,5.6-1.218,14.13,14.13,0,0,0,4.51-3.39c.226-.253.437-.522.651-.79l-.815,4.806h8.229l5.2-30.284h-8.3Zm-5.116,15.545a9.606,9.606,0,0,1-2.8,1.876,7.675,7.675,0,0,1-3.094.658,6.032,6.032,0,0,1-5.958-4.444,9.437,9.437,0,0,1-.3-4.246,10.523,10.523,0,0,1,1.81-4.444,10.737,10.737,0,0,1,3.489-3.193,8.207,8.207,0,0,1,4.378-1.119,5.656,5.656,0,0,1,2.765.79,6.192,6.192,0,0,1,1.975,1.942,7.686,7.686,0,0,1,1.086,2.732,9.783,9.783,0,0,1,.033,3.292,10.835,10.835,0,0,1-1.218,3.358A11.762,11.762,0,0,1,104.534,32.327Z" transform="translate(41.07 4.771)" fill="#7ed0a9" stroke="#333" stroke-linejoin="round" stroke-width="0.748"/>
        <path id="パス_10955" data-name="パス 10955" d="M139.89,16.372a12.858,12.858,0,0,0-.654-1.327,9.246,9.246,0,0,0-3.39-3.423,10.081,10.081,0,0,0-5.168-1.251,14.777,14.777,0,0,0-7.637,1.942,17.7,17.7,0,0,0-5.958,5.53,18.22,18.22,0,0,0-3,8,16,16,0,0,0,.724,7.867,11.841,11.841,0,0,0,4.18,5.6,11.522,11.522,0,0,0,6.946,2.074,13.2,13.2,0,0,0,5.6-1.185,13.928,13.928,0,0,0,4.508-3.325c.138-.151.247-.334.379-.491l-.741,4.276a11.71,11.71,0,0,1-1.776,4.74,9.617,9.617,0,0,1-3.425,3.226A9.156,9.156,0,0,1,126,49.74a7.147,7.147,0,0,1-3.522-.79,4.79,4.79,0,0,1-2.074-2.205,7.8,7.8,0,0,1-.657-3.325h-8.1a14,14,0,0,0,1.448,7.044,10.775,10.775,0,0,0,4.806,4.674,17.427,17.427,0,0,0,7.966,1.646,18.412,18.412,0,0,0,8.526-1.942,16.99,16.99,0,0,0,6.287-5.563,19.967,19.967,0,0,0,3.226-8.624l5.069-29.626h-8.163ZM137.129,29.2a9.747,9.747,0,0,1-2.173,2.732,10.193,10.193,0,0,1-2.831,1.778,7.209,7.209,0,0,1-3.094.56,6.283,6.283,0,0,1-3.786-1.119,5.892,5.892,0,0,1-2.173-3.028,9.2,9.2,0,0,1-.3-4.213,10.279,10.279,0,0,1,1.778-4.378A9.818,9.818,0,0,1,127.98,18.5a9.233,9.233,0,0,1,4.409-1.086,6.143,6.143,0,0,1,2.765.726,5.748,5.748,0,0,1,1.975,1.809,7.476,7.476,0,0,1,1.119,2.666,8.666,8.666,0,0,1,.109,2.594l-.232,1.335A11.36,11.36,0,0,1,137.129,29.2Z" transform="translate(55.028 4.771)" fill="#7ed0a9" stroke="#333" stroke-linejoin="round" stroke-width="0.748"/>
        <path id="パス_10956" data-name="パス 10956" d="M162.659,10.326a7.893,7.893,0,0,0-4.97,1.843,15.628,15.628,0,0,0-2.671,2.74l.663-3.859h-8.3l-5.2,30.284h8.3l2.759-16.071.006.007a10.54,10.54,0,0,1,1.086-3.423,7.786,7.786,0,0,1,2.138-2.6,4.519,4.519,0,0,1,3.03-.955,3.921,3.921,0,0,1,1.942.461,10.9,10.9,0,0,1,1.613,1.119l4.806-7.044a7.3,7.3,0,0,0-2.271-1.843A6.356,6.356,0,0,0,162.659,10.326Z" transform="translate(70.184 4.75)" fill="#7ed0a9" stroke="#333" stroke-linejoin="round" stroke-width="0.748"/>
        <path id="パス_10957" data-name="パス 10957" d="M188.356,16.782a12.686,12.686,0,0,0-.736-1.573,9.761,9.761,0,0,0-3.358-3.522,9.646,9.646,0,0,0-5.2-1.317,14.433,14.433,0,0,0-7.67,2.041,18.534,18.534,0,0,0-8.987,13.759,16.108,16.108,0,0,0,.724,7.867,12.281,12.281,0,0,0,4.148,5.728,11.229,11.229,0,0,0,6.979,2.14,12.888,12.888,0,0,0,5.6-1.218,14.131,14.131,0,0,0,4.51-3.39c.226-.253.437-.522.651-.79l-.815,4.806h8.229l5.2-30.284h-8.3Zm-5.114,15.545a9.632,9.632,0,0,1-2.8,1.876,7.675,7.675,0,0,1-3.094.658,6.031,6.031,0,0,1-5.958-4.444,9.436,9.436,0,0,1-.3-4.246,10.523,10.523,0,0,1,1.811-4.444,10.752,10.752,0,0,1,3.489-3.193,8.207,8.207,0,0,1,4.378-1.119,5.656,5.656,0,0,1,2.765.79,6.177,6.177,0,0,1,1.975,1.942,7.687,7.687,0,0,1,1.086,2.732,9.746,9.746,0,0,1,.033,3.292,10.835,10.835,0,0,1-1.218,3.358A11.8,11.8,0,0,1,183.242,32.327Z" transform="translate(80.128 4.771)" fill="#7ed0a9" stroke="#333" stroke-linejoin="round" stroke-width="0.748"/>
        <path id="パス_10958" data-name="パス 10958" d="M238.112,16.1a7.383,7.383,0,0,0-2.3-4.213,7.373,7.373,0,0,0-5.2-1.514,11.4,11.4,0,0,0-5.761,1.448,14.094,14.094,0,0,0-4.379,3.952,7.568,7.568,0,0,0-1.317-2.93,5.943,5.943,0,0,0-2.467-1.878,9.222,9.222,0,0,0-3.851-.593,10.144,10.144,0,0,0-3.524.593,9.994,9.994,0,0,0-2.93,1.679,12.181,12.181,0,0,0-2.3,2.535l.66-4.148h-8.164l-5.2,30.284h8.163l3.224-18.763a8.8,8.8,0,0,1,1.154-3.028,5.765,5.765,0,0,1,2.14-2.041,6.054,6.054,0,0,1,2.963-.724,2.756,2.756,0,0,1,2.271.856,4.316,4.316,0,0,1,.856,2.238,12.9,12.9,0,0,1-.034,3.028l-3.292,18.434h8.363l3.159-18.565a8.812,8.812,0,0,1,1.154-3.094,6.234,6.234,0,0,1,2.173-2.107,5.82,5.82,0,0,1,3-.79,2.844,2.844,0,0,1,2.337.856,4.14,4.14,0,0,1,.821,2.273,16.948,16.948,0,0,1,0,2.994l-3.356,18.434h8.493l3.292-19.355A18.433,18.433,0,0,0,238.112,16.1Z" transform="translate(94.593 4.77)" fill="#7ed0a9" stroke="#333" stroke-linejoin="round" stroke-width="0.748"/>
      </g>
    </g>
  </g>
</svg>
