<svg xmlns="http://www.w3.org/2000/svg" width="46.299" height="385" viewBox="0 0 46.299 385">
  <g id="グループ_5" data-name="グループ 5" transform="translate(-1448.872 -1316.411)">
    <g id="グループ_4" data-name="グループ 4" transform="translate(1448.872 1316.411)">
      <path id="パス_1" data-name="パス 1" d="M1482.849,1323.02c0,2.587-.206,6.435-1.587,9.023a4.594,4.594,0,0,0-1.053-.776c1.26-2.416,1.381-5.815,1.381-8.247v-4.642h6.608v-1.967h1.312v1.967h6.522v1.208h-13.182Zm5.987,4.606a23.868,23.868,0,0,0-1.759-2.019v6.5h-1.157v-6.573a22.908,22.908,0,0,1-2.484,4.245,5.047,5.047,0,0,0-.829-.881,12.464,12.464,0,0,0,3.037-5.279h-2.294v-1.1h2.57V1320h1.157v2.519h2.295v1.1h-2.295v.655c.621.535,2.088,1.949,2.468,2.33Zm4.8-4a14.38,14.38,0,0,0,2.847,5.175,4.6,4.6,0,0,0-.862.88,15.763,15.763,0,0,1-2.381-4.589v7.022h-1.156v-6.763a13.993,13.993,0,0,1-2.708,4.485,7.784,7.784,0,0,0-.829-.861,13.379,13.379,0,0,0,3.261-5.349h-2.052v-1.1h2.329V1320h1.156v2.519h2.778v1.1Z" transform="translate(-1450.181 -1316.411)" fill="#1a1818"/>
      <path id="パス_2" data-name="パス 2" d="M1486.582,1340.075a21,21,0,0,1-1.812,3.14h3.761V1340.9h1.277v2.312h5.158v5.521c0,.69-.155,1.052-.69,1.243a9.269,9.269,0,0,1-2.916.206,4.45,4.45,0,0,0-.414-1.156c1.1.035,2.105.017,2.364.017.293-.017.38-.086.38-.328v-4.3h-3.882v7.557h-1.277v-7.557h-3.657v5.953H1483.6v-5.659a13.536,13.536,0,0,1-2.5,2.243,6.333,6.333,0,0,0-.759-1.07,15.256,15.256,0,0,0,4.83-5.815h-4.33v-1.242h4.883a19.965,19.965,0,0,0,.914-2.64l1.328.31c-.241.777-.535,1.553-.828,2.33h8.782v1.242Z" transform="translate(-1450.186 -1317.237)" fill="#1a1818"/>
      <path id="パス_3" data-name="パス 3" d="M1483.188,1362.234h10.957a11.712,11.712,0,0,0,1.311-.069v1.38c-.362-.017-.9-.034-1.311-.034h-4.365a10.254,10.254,0,0,1-1.139,4.573,8.31,8.31,0,0,1-3.33,3.054l-1.242-.915a6.721,6.721,0,0,0,3.175-2.57,8.062,8.062,0,0,0,1.121-4.141h-5.177c-.517,0-1,.017-1.466.052v-1.4A13.061,13.061,0,0,0,1483.188,1362.234Zm2.054-4.193h6.78a12.4,12.4,0,0,0,1.571-.1v1.414c-.5-.034-1.087-.052-1.571-.052h-6.763c-.552,0-1.1.017-1.535.052v-1.414A10.678,10.678,0,0,0,1485.242,1358.041Z" transform="translate(-1450.244 -1318.146)" fill="#1a1818"/>
      <path id="パス_4" data-name="パス 4" d="M1487.786,1378.681a14.861,14.861,0,0,0-.086-1.916h1.673a12.337,12.337,0,0,0-.1,1.9l-.017,9.282a17.263,17.263,0,0,0,.121,2.363h-1.69a19.389,19.389,0,0,0,.1-2.363Z" transform="translate(-1450.493 -1318.932)" fill="#1a1818"/>
      <path id="パス_5" data-name="パス 5" d="M1494.392,1402.364a11.134,11.134,0,0,1-2.45,4.761,12.117,12.117,0,0,1-5.986,3.52l-1.07-1.19a11.232,11.232,0,0,0,5.9-3.071,8.429,8.429,0,0,0,1.985-3.658h-8.851c-.38,0-1.035.017-1.64.052v-1.467c.6.052,1.191.1,1.64.1h8.833a2.648,2.648,0,0,0,.932-.138l.932.588C1494.547,1402.036,1494.444,1402.243,1494.392,1402.364Zm-9.11-4.866h6.608a13.413,13.413,0,0,0,1.519-.086v1.45c-.415-.035-.983-.035-1.553-.035h-6.573c-.5,0-1.035.017-1.483.035v-1.45A12.767,12.767,0,0,0,1485.282,1397.5Z" transform="translate(-1450.267 -1319.794)" fill="#1a1818"/>
      <path id="パス_6" data-name="パス 6" d="M1487.786,1418.281a14.853,14.853,0,0,0-.086-1.916h1.673a12.33,12.33,0,0,0-.1,1.9l-.017,9.282a17.284,17.284,0,0,0,.121,2.364h-1.69a19.412,19.412,0,0,0,.1-2.364Z" transform="translate(-1450.493 -1320.586)" fill="#1a1818"/>
      <path id="パス_7" data-name="パス 7" d="M1486.921,1437.348c-.1.483-.241,1.467-.431,2.381.776-.052,1.483-.1,1.88-.1,1.519,0,2.761.587,2.761,2.881a16.218,16.218,0,0,1-.983,6.108,2.4,2.4,0,0,1-2.468,1.415,11.789,11.789,0,0,1-2-.241l-.224-1.432a8.089,8.089,0,0,0,2.088.344,1.391,1.391,0,0,0,1.466-.861,14.434,14.434,0,0,0,.794-5.177c0-1.535-.691-1.811-1.778-1.811-.414,0-1.069.052-1.812.121a34.468,34.468,0,0,1-3.571,9.109l-1.38-.568a27.5,27.5,0,0,0,3.571-8.42c-.9.1-1.708.19-2.139.243-.4.034-1.1.12-1.536.189l-.138-1.483a14.881,14.881,0,0,0,1.518,0c.553-.018,1.553-.1,2.571-.19a18.219,18.219,0,0,0,.414-3.659l1.605.139C1487.059,1436.641,1486.973,1437,1486.921,1437.348Zm9.2,7.453-1.346.639a21.689,21.689,0,0,0-3.089-6.575l1.259-.568A30.254,30.254,0,0,1,1496.117,1444.8Zm-1.605-6.643-.931.415a18.141,18.141,0,0,0-1.363-2.364l.914-.38A23.631,23.631,0,0,1,1494.512,1438.158Zm1.9-.69-.915.4a18.477,18.477,0,0,0-1.4-2.329l.88-.4A24.161,24.161,0,0,1,1496.41,1437.469Z" transform="translate(-1450.215 -1321.37)" fill="#1a1818"/>
      <path id="パス_8" data-name="パス 8" d="M1486.11,1455.426a27.357,27.357,0,0,1-1.864,3.692v11.612h-1.26V1461a16.772,16.772,0,0,1-2.018,2.312,5.708,5.708,0,0,0-.776-1.243,19.548,19.548,0,0,0,4.693-7.022Zm5.262,6.263v7.125h4.642v1.243h-10.421v-1.243h4.486v-7.125h-4.9v-1.242h4.9v-5.176h1.294v5.176h4.935v1.242Z" transform="translate(-1450.18 -1322.201)" fill="#1a1818"/>
      <path id="パス_9" data-name="パス 9" d="M1496.07,1488.545v1.259h-15.356v-1.259h8.713a56.966,56.966,0,0,0,2.329-8.316l1.45.276a79.879,79.879,0,0,1-2.45,8.04Zm-.5-9.127h-14.285v-1.242h6.4v-3.364H1489v3.364h6.573Zm-10.386,8.265a26.045,26.045,0,0,0-1.587-7.04l1.19-.31a25.868,25.868,0,0,1,1.691,7.04Z" transform="translate(-1450.202 -1323.027)" fill="#1a1818"/>
      <path id="パス_10" data-name="パス 10" d="M1482.772,1497.683c1.088-.121,4.59-.467,7.4-.708,1.845-.155,3.537-.259,4.658-.292l.017,1.38a15.379,15.379,0,0,0-3.382.259,6.055,6.055,0,0,0-4,5.349c0,3.313,3.175,4.33,5.918,4.434l-.483,1.449c-3.14-.121-6.816-1.795-6.816-5.59a6.941,6.941,0,0,1,3.262-5.711c-1.829.191-6.108.639-7.937,1.019l-.155-1.5C1481.892,1497.752,1482.428,1497.718,1482.772,1497.683Z" transform="translate(-1450.224 -1323.94)" fill="#1a1818"/>
      <path id="パス_11" data-name="パス 11" d="M1485.141,1516.358c.9,0,4.918-.121,5.815-.207a3.782,3.782,0,0,0,.914-.155l.777,1.019c-.294.206-.638.431-.95.673-.828.655-3.14,2.622-4.451,3.709a7.466,7.466,0,0,1,2.347-.38c2.813,0,4.83,1.708,4.83,3.986,0,2.725-2.243,4.52-5.832,4.52-2.311,0-3.709-1.018-3.709-2.416a2.381,2.381,0,0,1,2.605-2.209,3.336,3.336,0,0,1,3.485,2.985,2.964,2.964,0,0,0,2.088-2.88c0-1.657-1.588-2.9-3.813-2.9-2.8,0-4.314,1.19-6.454,3.364l-1-1c1.4-1.156,3.554-2.95,4.538-3.778.949-.794,3.053-2.537,3.916-3.3-.9.034-4.244.19-5.125.224q-.569.026-1.138.1l-.034-1.432A9.73,9.73,0,0,0,1485.141,1516.358Zm3.244,11.94a8.21,8.21,0,0,0,1.346-.1,2.275,2.275,0,0,0-2.243-2.26c-.776,0-1.364.467-1.364,1.052C1486.124,1527.814,1487.039,1528.3,1488.385,1528.3Z" transform="translate(-1450.247 -1324.746)" fill="#1a1818"/>
      <path id="パス_12" data-name="パス 12" d="M1489.028,1548.964l-.776-1.26a13.286,13.286,0,0,0,1.433-.223,5.115,5.115,0,0,0,4.313-5.021,4.761,4.761,0,0,0-4.555-4.917,30.535,30.535,0,0,1-1,4.881c-1.018,3.486-2.364,5.28-3.916,5.28-1.518,0-3.019-1.742-3.019-4.537a7.188,7.188,0,0,1,7.384-6.867,6.13,6.13,0,0,1,6.487,6.211C1495.377,1546.014,1493.032,1548.447,1489.028,1548.964Zm-4.468-2.847c.793,0,1.726-1.122,2.571-3.969a27.477,27.477,0,0,0,.931-4.572,5.9,5.9,0,0,0-5.227,5.47C1482.835,1545.168,1483.818,1546.117,1484.56,1546.117Z" transform="translate(-1450.235 -1325.594)" fill="#1a1818"/>
      <path id="パス_13" data-name="パス 13" d="M1484.283,1555.445a7.668,7.668,0,0,0-.293,1.122,43.3,43.3,0,0,0-.845,6.814,13.326,13.326,0,0,0,.172,2.331c.26-.777.656-1.76.95-2.468l.742.569a33.034,33.034,0,0,0-1.225,3.727,4.1,4.1,0,0,0-.086.759l.052.588-1.208.085a20.169,20.169,0,0,1-.638-5.348,52.651,52.651,0,0,1,.759-7.109,7.413,7.413,0,0,0,.121-1.206Zm8.351-.121a9.4,9.4,0,0,0-.1,1.019c-.017.466-.035,1.243-.053,2.036a28.2,28.2,0,0,0,2.916-.4v1.327c-.914.155-1.9.26-2.916.329.018,1.708.138,3.381.208,4.814a10.553,10.553,0,0,1,3.346,2.156l-.741,1.157a13.937,13.937,0,0,0-2.555-1.951v.328c0,1.415-.656,2.745-2.932,2.745-2.26,0-3.52-.915-3.52-2.434,0-1.432,1.276-2.553,3.485-2.553a7.628,7.628,0,0,1,1.57.156c-.069-1.294-.155-2.951-.172-4.349-.535.018-1.087.036-1.622.036-.966,0-1.846-.052-2.829-.121v-1.276c.949.085,1.846.137,2.864.137.535,0,1.052-.016,1.587-.034,0-.861-.017-1.621,0-2.088a7,7,0,0,0-.086-1.035Zm-3.072,12.3c1.433,0,1.829-.69,1.829-1.828,0-.155,0-.362-.017-.586a5.5,5.5,0,0,0-1.708-.26c-1.276,0-2.139.552-2.139,1.364C1487.527,1567.195,1488.355,1567.626,1489.562,1567.626Z" transform="translate(-1450.251 -1326.388)" fill="#1a1818"/>
      <path id="パス_14" data-name="パス 14" d="M1491.625,1574.994l1.1-.966a32.453,32.453,0,0,1,3.8,3.761l-1.139.983A28.9,28.9,0,0,0,1491.625,1574.994Z" transform="translate(-1450.657 -1327.17)" fill="#1a1818"/>
      <path id="パス_15" data-name="パス 15" d="M1455.434,1317.221c-.052.293-.086.759-.121,1.157-.017.4-.035,1.052-.069,1.794a24.319,24.319,0,0,0,3.468-.673l.034,1.345a29.415,29.415,0,0,1-3.537.6c-.017.795-.035,1.605-.035,2.278v.57a12.944,12.944,0,0,1,3.709-.6c2.485,0,4.261,1.345,4.261,3.365,0,2.036-1.294,3.364-3.623,3.916a10.67,10.67,0,0,1-2.087.225l-.484-1.364a10.845,10.845,0,0,0,1.984-.121c1.484-.311,2.83-1.087,2.83-2.64,0-1.432-1.295-2.209-2.9-2.209a11.226,11.226,0,0,0-3.675.656c.035,1.432.069,2.932.069,3.675,0,1.57-.586,2.07-1.5,2.07-1.328,0-3.52-1.294-3.52-2.812,0-1.4,1.76-2.88,3.709-3.709v-.949c0-.69,0-1.466.017-2.209-.466.036-.9.053-1.259.053-.966,0-1.587-.036-2.157-.087l-.035-1.328a15.3,15.3,0,0,0,2.157.138c.4,0,.828-.017,1.311-.052,0-.88.018-1.587.018-1.9a8.368,8.368,0,0,0-.087-1.19Zm-2.019,12.6c.4,0,.6-.259.6-.811,0-.621-.035-1.76-.052-3-1.363.655-2.4,1.621-2.4,2.381C1451.568,1329.126,1452.776,1329.816,1453.415,1329.816Zm7.263-10.731a25.868,25.868,0,0,1,3.865,2.467l-.691,1.088a23.365,23.365,0,0,0-3.8-2.536Z" transform="translate(-1448.929 -1316.445)" fill="#1a1818"/>
      <path id="パス_16" data-name="パス 16" d="M1461.5,1340.991a11.979,11.979,0,0,1-3.4,3.313,23.118,23.118,0,0,0,6.7,1.811,5.212,5.212,0,0,0-.811,1.225q-1.192-.181-2.33-.467v5.038h-1.294v-.552h-6.97v.569h-1.224v-4.882c-.88.276-1.76.5-2.623.69a4.264,4.264,0,0,0-.638-1.122,24.752,24.752,0,0,0,6.815-2.26,11.447,11.447,0,0,1-2.329-2.019,14.6,14.6,0,0,1-2.692,1.691,3.923,3.923,0,0,0-.862-.915,11.4,11.4,0,0,0,4.9-3.882l1.38.259a10.666,10.666,0,0,1-.793,1.018h5.089l.224-.051Zm-10.646-.017h-1.225v-3.227h6.539v-1.535h1.293v1.535h6.608v3.227H1462.8v-2.036h-11.94Zm10.094,5.711a19.355,19.355,0,0,1-4.055-1.622,23.752,23.752,0,0,1-3.623,1.622Zm-.587,3.571v-2.5h-6.97v2.5Zm-6.073-8.661a9.809,9.809,0,0,0,2.623,2.087,11.368,11.368,0,0,0,2.623-2.156h-5.193Z" transform="translate(-1448.874 -1317.238)" fill="#1a1818"/>
      <path id="パス_17" data-name="パス 17" d="M1456.886,1357.03l1.467-.19a18.3,18.3,0,0,0,.776,2.9,22.837,22.837,0,0,0,3.761-.829l.155,1.346a29.65,29.65,0,0,1-3.485.69,19.276,19.276,0,0,0,1.9,3.451c.242.328.5.621.742.9l-.691.983a37.9,37.9,0,0,0-4.106-.465l.1-1.157c.949.069,2.173.173,2.794.242a22.239,22.239,0,0,1-2.035-3.813,44.436,44.436,0,0,1-7.092-.035l-.033-1.381a34.5,34.5,0,0,0,6.676.208c-.206-.622-.379-1.14-.5-1.519C1457.214,1358,1457.058,1357.478,1456.886,1357.03Zm-3.934,10.386c0,1.571,1.484,2.294,3.968,2.312a19.46,19.46,0,0,0,4.366-.415l-.053,1.381a22.933,22.933,0,0,1-4.382.362c-3.209-.017-5.245-1.19-5.245-3.485a6.488,6.488,0,0,1,.812-2.812l1.345.311A4.424,4.424,0,0,0,1452.952,1367.416Z" transform="translate(-1448.967 -1318.099)" fill="#1a1818"/>
      <path id="パス_18" data-name="パス 18" d="M1458.18,1376.711c-.035.294-.07.622-.087,1.122,0,.224-.016.587-.016,1.035a41.1,41.1,0,0,0,4.572-.466v1.26c-1.345.138-2.95.311-4.572.4v2.329c1.621-.069,3.174-.224,4.693-.431v1.277c-1.587.206-3.071.328-4.676.4.035.863.087,1.759.121,2.57a13.841,13.841,0,0,1,4.935,2.64l-.793,1.225a12.3,12.3,0,0,0-4.072-2.553c.017.414.034.776.034,1.035,0,1.208-.793,2.381-3,2.381-2.433,0-3.761-.88-3.761-2.5,0-1.552,1.483-2.605,3.916-2.605a9.432,9.432,0,0,1,1.415.1c-.017-.759-.052-1.552-.069-2.26h-.949c-1.156,0-3.019-.1-4.227-.241l-.018-1.295a33.28,33.28,0,0,0,4.245.31h.914v-2.328h-.742c-1.156,0-3.244-.173-4.313-.31l-.017-1.26a29.87,29.87,0,0,0,4.313.38h.776v-1.19a8.909,8.909,0,0,0-.069-1.019Zm-3.019,12.993c.983,0,1.794-.294,1.794-1.45,0-.293-.017-.69-.017-1.138a8.344,8.344,0,0,0-1.621-.155c-1.622,0-2.485.621-2.485,1.4S1453.487,1389.7,1455.161,1389.7Z" transform="translate(-1448.984 -1318.929)" fill="#1a1818"/>
      <path id="パス_19" data-name="パス 19" d="M1455.421,1397.748c-.1.484-.241,1.467-.431,2.381.776-.052,1.483-.1,1.88-.1,1.519,0,2.761.586,2.761,2.881a16.221,16.221,0,0,1-.983,6.108,2.4,2.4,0,0,1-2.467,1.414,11.788,11.788,0,0,1-2-.242l-.224-1.432a8.052,8.052,0,0,0,2.088.345,1.391,1.391,0,0,0,1.466-.862,14.432,14.432,0,0,0,.794-5.176c0-1.535-.691-1.811-1.777-1.811-.414,0-1.069.051-1.812.12a34.489,34.489,0,0,1-3.571,9.11l-1.38-.569a27.5,27.5,0,0,0,3.571-8.42c-.9.1-1.708.19-2.139.242-.4.036-1.1.121-1.536.191l-.138-1.484a14.811,14.811,0,0,0,1.518,0c.553-.017,1.553-.1,2.571-.19a18.208,18.208,0,0,0,.414-3.658l1.605.138C1455.559,1397.041,1455.473,1397.4,1455.421,1397.748Zm9.2,7.454-1.346.638a21.684,21.684,0,0,0-3.089-6.573l1.259-.57A30.291,30.291,0,0,1,1464.617,1405.2Zm-1.605-6.644-.931.415a18.21,18.21,0,0,0-1.363-2.364l.914-.38A23.66,23.66,0,0,1,1463.012,1398.558Zm1.9-.69-.915.4a18.471,18.471,0,0,0-1.4-2.329l.88-.4A24.24,24.24,0,0,1,1464.91,1397.869Z" transform="translate(-1448.899 -1319.716)" fill="#1a1818"/>
      <path id="パス_20" data-name="パス 20" d="M1454.427,1422.724c-.138.345-.293.691-.448,1.035h8.713v7.316h-1.311v-.588h-7.213v.622h-1.259v-5.453a13.453,13.453,0,0,1-3.071,3.364,7.2,7.2,0,0,0-.966-.949,11.9,11.9,0,0,0,4.158-5.349h-3.606v-1.052h6.781v-1.19h-5.211v-1h5.211v-1.19h-5.97v-1.036h3.157a9.8,9.8,0,0,0-1.018-1.466l1.1-.4a6.387,6.387,0,0,1,1.26,1.778l-.208.085h4.555l-.19-.068a15.552,15.552,0,0,0,1.173-1.829l1.345.4c-.4.535-.811,1.069-1.19,1.5h3.313v1.036H1457.5v1.19h5.262v1H1457.5v1.19h6.781v1.052Zm-.259,2.019v1.035h7.213v-1.035Zm7.213,1.846h-7.213v1.036h7.213Zm0,2.916v-1.069h-7.213v1.069Z" transform="translate(-1448.872 -1320.543)" fill="#1a1818"/>
      <path id="パス_21" data-name="パス 21" d="M1455.564,1437.541c-.069.363-.155.8-.259,1.26a27.228,27.228,0,0,0,3.226-.6v1.345a32,32,0,0,1-3.5.588c-.173.742-.345,1.519-.553,2.242a48.846,48.846,0,0,1-2.639,7.746l-1.519-.517a35.476,35.476,0,0,0,2.847-7.556c.155-.553.293-1.191.431-1.795-.552.035-1.069.051-1.535.051-.742,0-1.364-.016-1.967-.068l-.034-1.329a14.567,14.567,0,0,0,2.036.121c.552,0,1.156-.016,1.794-.069.121-.62.207-1.138.26-1.483a8.286,8.286,0,0,0,.068-1.4l1.639.139C1455.754,1436.576,1455.616,1437.232,1455.564,1437.541Zm1.985,9.456c0,.794.431,1.57,2.846,1.57a17.3,17.3,0,0,0,3.313-.345l-.051,1.4a24.814,24.814,0,0,1-3.279.242c-2.656,0-4.141-.846-4.141-2.519a9.283,9.283,0,0,1,.276-1.984l1.276.121A5.747,5.747,0,0,0,1457.549,1447Zm2.967-5.78a26.99,26.99,0,0,1,2.933.138l-.035,1.295a23.894,23.894,0,0,0-2.847-.191,27.142,27.142,0,0,0-3.139.172v-1.276C1458.307,1441.269,1459.446,1441.217,1460.515,1441.217Z" transform="translate(-1448.922 -1321.409)" fill="#1a1818"/>
      <path id="パス_22" data-name="パス 22" d="M1459.284,1457.783c-1.157,1.019-3.606,2.933-4.849,3.985-1.018.863-1.035,1.121.053,2.035,1.552,1.26,4.554,3.676,6.332,5.47l-1.226,1.139c-.362-.414-.759-.829-1.173-1.26-1.208-1.224-3.762-3.415-5.349-4.71-1.6-1.345-1.4-2.052.121-3.347,1.295-1.069,3.865-3.106,5-4.261a8.961,8.961,0,0,0,.966-1.139l1.276,1.139C1460.077,1457.11,1459.577,1457.559,1459.284,1457.783Z" transform="translate(-1449.001 -1322.228)" fill="#1a1818"/>
      <path id="パス_23" data-name="パス 23" d="M1455.425,1478.311a17.517,17.517,0,0,0,2.657-.622l.034,1.277a25.4,25.4,0,0,1-3.071.622,30.392,30.392,0,0,1-3.692,7.143l-1.329-.691a24.989,24.989,0,0,0,3.623-6.315c-.5.034-1,.052-1.483.052-.639,0-1.345-.017-1.984-.052l-.086-1.276a19.551,19.551,0,0,0,2.071.1,18.04,18.04,0,0,0,1.9-.086,13.536,13.536,0,0,0,.535-2.916l1.5.155C1455.942,1476.309,1455.7,1477.327,1455.425,1478.311Zm4.658,4.435c.017.638.069,1.742.121,2.777a11.667,11.667,0,0,1,3.5,2.088l-.742,1.156a12.848,12.848,0,0,0-2.726-1.933c.017.26.017.5.017.691,0,1.363-.845,2.45-2.968,2.45-1.863,0-3.382-.743-3.382-2.434,0-1.552,1.484-2.536,3.382-2.536a8.219,8.219,0,0,1,1.622.155c-.052-1.38-.121-3.036-.155-4.245h1.345C1460.065,1481.623,1460.065,1482.141,1460.083,1482.745Zm-2.968,6c1.415,0,1.847-.742,1.847-1.64,0-.223,0-.483-.017-.775a6.1,6.1,0,0,0-1.708-.241c-1.242,0-2.07.569-2.07,1.345S1455.8,1488.749,1457.115,1488.749Zm2.485-9.713.673-1.037a26.042,26.042,0,0,1,3.951,2.243l-.776,1.122A20.58,20.58,0,0,0,1459.6,1479.036Z" transform="translate(-1448.92 -1323.057)" fill="#1a1818"/>
      <path id="パス_24" data-name="パス 24" d="M1453.641,1496.558c.9,0,4.917-.121,5.814-.207a3.681,3.681,0,0,0,.914-.155l.777,1.019c-.294.207-.638.43-.949.673-.828.656-3.14,2.622-4.451,3.709a7.5,7.5,0,0,1,2.347-.379c2.813,0,4.83,1.708,4.83,3.985,0,2.725-2.243,4.521-5.832,4.521-2.311,0-3.709-1.019-3.709-2.416a2.381,2.381,0,0,1,2.605-2.209,3.336,3.336,0,0,1,3.485,2.985,2.965,2.965,0,0,0,2.088-2.881c0-1.657-1.588-2.9-3.813-2.9-2.8,0-4.314,1.191-6.454,3.365l-1-1c1.4-1.156,3.554-2.95,4.538-3.778.949-.793,3.053-2.537,3.916-3.3-.9.034-4.244.191-5.125.225q-.569.025-1.138.1l-.034-1.432A9.727,9.727,0,0,0,1453.641,1496.558Zm3.244,11.94a8.211,8.211,0,0,0,1.346-.1,2.275,2.275,0,0,0-2.243-2.26c-.776,0-1.364.467-1.364,1.052C1454.624,1508.014,1455.539,1508.5,1456.885,1508.5Z" transform="translate(-1448.931 -1323.919)" fill="#1a1818"/>
      <path id="パス_25" data-name="パス 25" d="M1455.434,1515.222c-.052.292-.086.759-.121,1.156-.017.4-.035,1.052-.069,1.795a24.286,24.286,0,0,0,3.468-.673l.034,1.345a29.487,29.487,0,0,1-3.537.6c-.017.793-.035,1.6-.035,2.278v.569a12.944,12.944,0,0,1,3.709-.6c2.485,0,4.261,1.345,4.261,3.363,0,2.036-1.294,3.365-3.623,3.917a10.662,10.662,0,0,1-2.087.224l-.484-1.363a10.855,10.855,0,0,0,1.984-.121c1.484-.311,2.83-1.088,2.83-2.64,0-1.433-1.295-2.209-2.9-2.209a11.228,11.228,0,0,0-3.675.655c.035,1.433.069,2.933.069,3.676,0,1.569-.586,2.07-1.5,2.07-1.328,0-3.52-1.295-3.52-2.812,0-1.4,1.76-2.88,3.709-3.709v-.949c0-.691,0-1.467.017-2.209-.466.035-.9.052-1.259.052-.966,0-1.587-.034-2.157-.086l-.035-1.329a15.342,15.342,0,0,0,2.157.139c.4,0,.828-.018,1.311-.053,0-.88.018-1.587.018-1.9a8.354,8.354,0,0,0-.087-1.19Zm-2.019,12.594c.4,0,.6-.258.6-.81,0-.622-.035-1.76-.052-3-1.363.655-2.4,1.621-2.4,2.38C1451.568,1527.127,1452.776,1527.816,1453.415,1527.816Zm7.263-10.731a25.8,25.8,0,0,1,3.865,2.468l-.691,1.087a23.417,23.417,0,0,0-3.8-2.536Z" transform="translate(-1448.929 -1324.714)" fill="#1a1818"/>
      <path id="パス_26" data-name="パス 26" d="M1452.912,1537.108a13.76,13.76,0,0,1-2.8,3.882,10.914,10.914,0,0,0-1.173-.828,12.4,12.4,0,0,0,3.709-6l1.328.31q-.259.8-.569,1.553h10.749v1.087Zm5.556,5.624a17.229,17.229,0,0,1-2.192,3,22.1,22.1,0,0,1,3.088,2.623l-1.018.965a20.343,20.343,0,0,0-3-2.656,19.843,19.843,0,0,1-4.987,3.416,7.2,7.2,0,0,0-.949-.983,17.628,17.628,0,0,0,4.935-3.157,38.567,38.567,0,0,0-3.278-2.088l.914-.845c1.052.586,2.191,1.277,3.3,2.019a13.692,13.692,0,0,0,1.984-2.709Zm3.33-1.811c.017,4.451.259,7.782,1.552,7.782.345,0,.431-.983.466-2.433a5.089,5.089,0,0,0,.9.742c-.121,2.157-.4,2.933-1.45,2.95-2.277-.017-2.64-3.226-2.743-7.937h-9.869v-1.1Zm-9.179-1.381v-1.069h9.9v1.069Z" transform="translate(-1448.875 -1325.505)" fill="#1a1818"/>
      <path id="パス_27" data-name="パス 27" d="M1452.98,1555.626a11.026,11.026,0,0,0-.31,1.137,40.249,40.249,0,0,0-.846,6.488,15.616,15.616,0,0,0,.156,2.329c.293-.759.69-1.76.966-2.45l.725.552a36.845,36.845,0,0,0-1.207,3.8,6.392,6.392,0,0,0-.086.759l.052.587-1.226.086a21.063,21.063,0,0,1-.638-5.434,49.669,49.669,0,0,1,.759-6.78,9.681,9.681,0,0,0,.121-1.208Zm3.882,8.195a5.593,5.593,0,0,0-.259,1.553c0,.775.552,1.5,2.864,1.5a18.232,18.232,0,0,0,4.175-.431l.035,1.432a21.08,21.08,0,0,1-4.228.345c-2.83,0-4.106-.949-4.106-2.535a8.715,8.715,0,0,1,.276-1.985Zm-.673-6.9a30.108,30.108,0,0,0,6.953,0v1.381a40.591,40.591,0,0,1-6.953,0Z" transform="translate(-1448.943 -1326.396)" fill="#1a1818"/>
      <path id="パス_28" data-name="パス 28" d="M1457.691,1574.892c0,3.054.4,9.558,7.16,13.579a6.067,6.067,0,0,0-1.036,1.069,14.888,14.888,0,0,1-6.849-9.611c-1.276,4.469-3.451,7.609-6.884,9.628a8.368,8.368,0,0,0-1.156-1.017c3.813-1.986,5.935-5.453,6.987-10.284l.759.121c-.121-.793-.19-1.552-.224-2.208H1452.2v-1.277Z" transform="translate(-1448.874 -1327.206)" fill="#1a1818"/>
      <path id="パス_29" data-name="パス 29" d="M1453.637,1599.292c.69-1.725,2.433-3.847,4.59-3.847,2.225,0,3.865,2.26,3.865,5.815,0,4.693-2.968,6.763-7.144,7.522l-.811-1.225c3.676-.552,6.539-2.036,6.539-6.28,0-2.674-.9-4.59-2.674-4.59-2.122,0-4.072,3.071-4.279,5.28a8.576,8.576,0,0,0,.035,2.088l-1.328.086a20.106,20.106,0,0,1-.172-2.674,47.51,47.51,0,0,1,.517-5.469c.069-.517.1-1,.138-1.467l1.5.069A30.963,30.963,0,0,0,1453.637,1599.292Z" transform="translate(-1449.013 -1328.026)" fill="#1a1818"/>
      <path id="パス_30" data-name="パス 30" d="M1457.528,1628.164l-.776-1.26a12.841,12.841,0,0,0,1.433-.224,5.114,5.114,0,0,0,4.313-5.02,4.762,4.762,0,0,0-4.555-4.918,30.572,30.572,0,0,1-1,4.883c-1.018,3.485-2.364,5.279-3.916,5.279-1.518,0-3.019-1.742-3.019-4.537a7.188,7.188,0,0,1,7.384-6.867,6.129,6.129,0,0,1,6.487,6.21C1463.877,1625.214,1461.532,1627.647,1457.528,1628.164Zm-4.468-2.847c.793,0,1.726-1.121,2.571-3.968a27.515,27.515,0,0,0,.931-4.573,5.9,5.9,0,0,0-5.227,5.47C1451.335,1624.368,1452.318,1625.317,1453.06,1625.317Z" transform="translate(-1448.919 -1328.902)" fill="#1a1818"/>
      <path id="パス_31" data-name="パス 31" d="M1464.735,1640.521v1.4H1449.07v-1.4Z" transform="translate(-1448.88 -1329.947)" fill="#1a1818"/>
      <path id="パス_32" data-name="パス 32" d="M1454.427,1660.325c-.138.344-.293.689-.448,1.035h8.713v7.315h-1.311v-.586h-7.213v.621h-1.259v-5.452a13.474,13.474,0,0,1-3.071,3.364,7.192,7.192,0,0,0-.966-.949,11.907,11.907,0,0,0,4.158-5.348h-3.606v-1.053h6.781v-1.19h-5.211v-1h5.211v-1.191h-5.97v-1.035h3.157a9.713,9.713,0,0,0-1.018-1.467l1.1-.4a6.384,6.384,0,0,1,1.26,1.778l-.208.086h4.555l-.19-.07a15.482,15.482,0,0,0,1.173-1.828l1.345.4c-.4.536-.811,1.069-1.19,1.5h3.313v1.035H1457.5v1.191h5.262v1H1457.5v1.19h6.781v1.053Zm-.259,2.018v1.035h7.213v-1.035Zm7.213,1.847h-7.213v1.035h7.213Zm0,2.916v-1.07h-7.213v1.07Z" transform="translate(-1448.872 -1330.467)" fill="#1a1818"/>
      <path id="パス_33" data-name="パス 33" d="M1451.128,1675.991c1.088-.121,4.59-.466,7.4-.707,1.846-.155,3.537-.26,4.658-.294l.017,1.381a15.37,15.37,0,0,0-3.382.259,6.055,6.055,0,0,0-4,5.348c0,3.313,3.175,4.331,5.918,4.435l-.483,1.45c-3.14-.122-6.816-1.795-6.816-5.59a6.981,6.981,0,0,1,3.262-5.711c-1.829.19-6.108.638-7.937,1.018l-.155-1.5C1450.266,1676.059,1450.783,1676.025,1451.128,1675.991Zm11.008,4.8-.88.4a18.167,18.167,0,0,0-1.381-2.4l.846-.362A22.66,22.66,0,0,1,1462.136,1680.787Zm1.9-.742-.863.414a15.673,15.673,0,0,0-1.432-2.364l.845-.379A21.962,21.962,0,0,1,1464.034,1680.046Z" transform="translate(-1448.903 -1331.387)" fill="#1a1818"/>
      <path id="パス_34" data-name="パス 34" d="M1458.959,1693.548c-.035.19-.069.845-.086,1.069,0,.26-.017.638-.017,1.088h.242c2.071,0,4.158.016,4.952.016V1697c-.967-.052-2.485-.069-4.969-.069h-.224c0,.966.017,1.984.035,2.761a4.271,4.271,0,0,1,.535,2.174c0,2.278-1.121,4.83-5.055,6l-1.139-1.121c2.209-.517,3.761-1.432,4.452-2.95a2.353,2.353,0,0,1-1.432.431,2.726,2.726,0,0,1-2.778-2.846,2.956,2.956,0,0,1,2.985-2.95,3.257,3.257,0,0,1,1.122.19c0-.5-.017-1.1-.017-1.674-2.572.017-5.452.121-7.558.276l-.034-1.328c1.881-.034,5.056-.138,7.575-.173-.018-.466-.018-.862-.036-1.1-.035-.448-.085-.914-.121-1.069Zm-2.5,9.49c.984,0,1.64-.776,1.484-2.347a1.458,1.458,0,0,0-1.484-1.1,1.7,1.7,0,0,0-1.708,1.777A1.611,1.611,0,0,0,1456.457,1703.037Z" transform="translate(-1448.918 -1332.162)" fill="#1a1818"/>
      <path id="パス_35" data-name="パス 35" d="M1465.14,1715.377a2.588,2.588,0,1,1-2.588-2.588A2.585,2.585,0,0,1,1465.14,1715.377Zm-.881,0a1.717,1.717,0,0,0-3.433,0,1.717,1.717,0,1,0,3.433,0Z" transform="translate(-1449.335 -1332.965)" fill="#1a1818"/>
    </g>
  </g>
</svg>
