<?xml version="1.0" encoding="utf-8"?>
<!-- Generator: Adobe Illustrator 26.5.0, SVG Export Plug-In . SVG Version: 6.00 Build 0)  -->
<svg version="1.1" id="レイヤー_1" xmlns="http://www.w3.org/2000/svg" xmlns:xlink="http://www.w3.org/1999/xlink" x="0px"
	 y="0px" viewBox="0 0 14.2 9.9" style="enable-background:new 0 0 14.2 9.9;" xml:space="preserve">
<style type="text/css">
	.st0{fill:#333333;}
</style>
<g id="グループ_23" transform="translate(-75.828 -2063.55)">
	<path id="長方形_35" class="st0" d="M76.5,2068h13c0.3,0,0.5,0.2,0.5,0.5l0,0c0,0.3-0.2,0.5-0.5,0.5h-13c-0.3,0-0.5-0.2-0.5-0.5
		l0,0C76,2068.2,76.2,2068,76.5,2068z"/>
	<g id="グループ_22" transform="translate(-1441.623 657.115) rotate(-45)">
		<path id="長方形_36" class="st0" d="M75.5,2071h6c0.3,0,0.5,0.2,0.5,0.5l0,0c0,0.3-0.2,0.5-0.5,0.5h-6c-0.3,0-0.5-0.2-0.5-0.5
			l0,0C75,2071.2,75.2,2071,75.5,2071z"/>
		<path id="長方形_37" class="st0" d="M75.5,2071L75.5,2071c0.3,0,0.5,0.2,0.5,0.5v6c0,0.3-0.2,0.5-0.5,0.5l0,0
			c-0.3,0-0.5-0.2-0.5-0.5v-6C75,2071.2,75.2,2071,75.5,2071z"/>
	</g>
</g>
</svg>
