<?xml version="1.0" encoding="utf-8"?>
<!-- Generator: Adobe Illustrator 26.5.0, SVG Export Plug-In . SVG Version: 6.00 Build 0)  -->
<svg version="1.1" id="レイヤー_1" xmlns="http://www.w3.org/2000/svg" xmlns:xlink="http://www.w3.org/1999/xlink" x="0px"
	 y="0px" viewBox="0 0 14.2 9.9" style="enable-background:new 0 0 14.2 9.9;" xml:space="preserve">
<style type="text/css">
	.st0{fill:#333333;}
</style>
<g id="グループ_23" transform="translate(-75.828 -2063.55)">
	<path id="長方形_35" class="st0" d="M89.5,2069h-13c-0.3,0-0.5-0.2-0.5-0.5l0,0c0-0.3,0.2-0.5,0.5-0.5h13c0.3,0,0.5,0.2,0.5,0.5
		l0,0C90,2068.8,89.8,2069,89.5,2069z"/>
	<g id="グループ_22" transform="translate(-1441.623 657.115) rotate(-45)">
		<path id="長方形_36" class="st0" d="M84.6,2081.1h-6c-0.3,0-0.5-0.2-0.5-0.5l0,0c0-0.3,0.2-0.5,0.5-0.5h6
			c0.3,0,0.5,0.2,0.5,0.5l0,0C85.1,2080.9,84.9,2081.1,84.6,2081.1z"/>
		<path id="長方形_37" class="st0" d="M84.6,2081.1L84.6,2081.1c-0.3,0-0.5-0.2-0.5-0.5v-6c0-0.3,0.2-0.5,0.5-0.5l0,0
			c0.3,0,0.5,0.2,0.5,0.5v6C85.1,2080.9,84.9,2081.1,84.6,2081.1z"/>
	</g>
</g>
</svg>
